<?xml version="1.0" encoding="UTF-8" standalone="no"?>
<!DOCTYPE svg PUBLIC "-//W3C//DTD SVG 1.1//EN"
 "http://www.w3.org/Graphics/SVG/1.1/DTD/svg11.dtd">
<!-- Generated by graphviz version 2.42.4 (0)
 -->
<!-- Title: Trie Pages: 1 -->
<svg width="737pt" height="133pt"
 viewBox="0.00 0.00 737.00 133.00" xmlns="http://www.w3.org/2000/svg" xmlns:xlink="http://www.w3.org/1999/xlink">
<g id="graph0" class="graph" transform="scale(1 1) rotate(0) translate(4 129)">
<title>Trie</title>
<polygon fill="white" stroke="transparent" points="-4,4 -4,-129 733,-129 733,4 -4,4"/>
<!-- node0x55b7ec1c56c0 -->
<g id="node1" class="node">
<title>node0x55b7ec1c56c0</title>
<ellipse fill="none" stroke="black" cx="12.5" cy="-62.5" rx="12.5" ry="12.5"/>
</g>
<!-- node0x55b7ec1c57a0 -->
<g id="node2" class="node">
<title>node0x55b7ec1c57a0</title>
<ellipse fill="none" stroke="black" cx="89.5" cy="-62.5" rx="12.5" ry="12.5"/>
</g>
<!-- node0x55b7ec1c56c0&#45;&gt;node0x55b7ec1c57a0 -->
<g id="edge1" class="edge">
<title>node0x55b7ec1c56c0&#45;&gt;node0x55b7ec1c57a0</title>
<path fill="none" stroke="black" d="M25.22,-62.5C36.16,-62.5 52.78,-62.5 66.24,-62.5"/>
<polygon fill="black" stroke="black" points="66.62,-66 76.62,-62.5 66.62,-59 66.62,-66"/>
<text text-anchor="middle" x="51" y="-66.3" font-family="Times,serif" font-size="14.00">c</text>
</g>
<!-- node0x55b7ec1c5880 -->
<g id="node3" class="node">
<title>node0x55b7ec1c5880</title>
<ellipse fill="none" stroke="black" cx="167.5" cy="-62.5" rx="12.5" ry="12.5"/>
</g>
<!-- node0x55b7ec1c57a0&#45;&gt;node0x55b7ec1c5880 -->
<g id="edge2" class="edge">
<title>node0x55b7ec1c57a0&#45;&gt;node0x55b7ec1c5880</title>
<path fill="none" stroke="black" d="M102.04,-62.5C113.31,-62.5 130.75,-62.5 144.65,-62.5"/>
<polygon fill="black" stroke="black" points="144.85,-66 154.85,-62.5 144.85,-59 144.85,-66"/>
<text text-anchor="middle" x="128.5" y="-66.3" font-family="Times,serif" font-size="14.00">a</text>
</g>
<!-- node0x55b7ec1c5960 -->
<g id="node4" class="node">
<title>node0x55b7ec1c5960</title>
<ellipse fill="none" stroke="black" cx="244.5" cy="-62.5" rx="12.5" ry="12.5"/>
</g>
<!-- node0x55b7ec1c5880&#45;&gt;node0x55b7ec1c5960 -->
<g id="edge3" class="edge">
<title>node0x55b7ec1c5880&#45;&gt;node0x55b7ec1c5960</title>
<path fill="none" stroke="black" d="M180.22,-62.5C191.16,-62.5 207.78,-62.5 221.24,-62.5"/>
<polygon fill="black" stroke="black" points="221.62,-66 231.62,-62.5 221.62,-59 221.62,-66"/>
<text text-anchor="middle" x="206" y="-66.3" font-family="Times,serif" font-size="14.00">s</text>
</g>
<!-- node0x55b7ec1c5a40 -->
<g id="node5" class="node">
<title>node0x55b7ec1c5a40</title>
<ellipse fill="lightgray" stroke="black" cx="322.5" cy="-62.5" rx="12.5" ry="12.5"/>
<text text-anchor="middle" x="322.5" y="-59.7" font-family="Times,serif" font-size="11.00">*</text>
</g>
<!-- node0x55b7ec1c5960&#45;&gt;node0x55b7ec1c5a40 -->
<g id="edge4" class="edge">
<title>node0x55b7ec1c5960&#45;&gt;node0x55b7ec1c5a40</title>
<path fill="none" stroke="black" d="M257.04,-62.5C268.31,-62.5 285.75,-62.5 299.65,-62.5"/>
<polygon fill="black" stroke="black" points="299.85,-66 309.85,-62.5 299.85,-59 299.85,-66"/>
<text text-anchor="middle" x="283.5" y="-66.3" font-family="Times,serif" font-size="14.00">a</text>
</g>
<!-- node0x55b7ec1c5b20 -->
<g id="node6" class="node">
<title>node0x55b7ec1c5b20</title>
<ellipse fill="lightgray" stroke="black" cx="405.5" cy="-112.5" rx="12.5" ry="12.5"/>
<text text-anchor="middle" x="405.5" y="-109.7" font-family="Times,serif" font-size="11.00">*</text>
</g>
<!-- node0x55b7ec1c5a40&#45;&gt;node0x55b7ec1c5b20 -->
<g id="edge5" class="edge">
<title>node0x55b7ec1c5a40&#45;&gt;node0x55b7ec1c5b20</title>
<path fill="none" stroke="black" d="M333.45,-68.78C340.1,-72.97 349.06,-78.59 357,-83.5 366.41,-89.32 376.91,-95.74 385.64,-101.06"/>
<polygon fill="black" stroke="black" points="383.92,-104.11 394.29,-106.31 387.56,-98.13 383.92,-104.11"/>
<text text-anchor="middle" x="364" y="-95.3" font-family="Times,serif" font-size="14.00">l</text>
</g>
<!-- node0x55b7ec1c5c00 -->
<g id="node7" class="node">
<title>node0x55b7ec1c5c00</title>
<ellipse fill="none" stroke="black" cx="405.5" cy="-62.5" rx="12.5" ry="12.5"/>
</g>
<!-- node0x55b7ec1c5a40&#45;&gt;node0x55b7ec1c5c00 -->
<g id="edge6" class="edge">
<title>node0x55b7ec1c5a40&#45;&gt;node0x55b7ec1c5c00</title>
<path fill="none" stroke="black" d="M335.11,-62.5C347.5,-62.5 367.42,-62.5 382.74,-62.5"/>
<polygon fill="black" stroke="black" points="382.92,-66 392.92,-62.5 382.92,-59 382.92,-66"/>
<text text-anchor="middle" x="364" y="-66.3" font-family="Times,serif" font-size="14.00">m</text>
</g>
<!-- node0x55b7ec1c6060 -->
<g id="node12" class="node">
<title>node0x55b7ec1c6060</title>
<ellipse fill="none" stroke="black" cx="405.5" cy="-12.5" rx="12.5" ry="12.5"/>
</g>
<!-- node0x55b7ec1c5a40&#45;&gt;node0x55b7ec1c6060 -->
<g id="edge11" class="edge">
<title>node0x55b7ec1c5a40&#45;&gt;node0x55b7ec1c6060</title>
<path fill="none" stroke="black" d="M333.45,-56.22C340.1,-52.03 349.06,-46.41 357,-41.5 366.41,-35.68 376.91,-29.26 385.64,-23.94"/>
<polygon fill="black" stroke="black" points="387.56,-26.87 394.29,-18.69 383.92,-20.89 387.56,-26.87"/>
<text text-anchor="middle" x="364" y="-45.3" font-family="Times,serif" font-size="14.00">r</text>
</g>
<!-- node0x55b7ec1c5ce0 -->
<g id="node8" class="node">
<title>node0x55b7ec1c5ce0</title>
<ellipse fill="none" stroke="black" cx="483.5" cy="-62.5" rx="12.5" ry="12.5"/>
</g>
<!-- node0x55b7ec1c5c00&#45;&gt;node0x55b7ec1c5ce0 -->
<g id="edge7" class="edge">
<title>node0x55b7ec1c5c00&#45;&gt;node0x55b7ec1c5ce0</title>
<path fill="none" stroke="black" d="M418.04,-62.5C429.31,-62.5 446.75,-62.5 460.65,-62.5"/>
<polygon fill="black" stroke="black" points="460.85,-66 470.85,-62.5 460.85,-59 460.85,-66"/>
<text text-anchor="middle" x="444.5" y="-66.3" font-family="Times,serif" font-size="14.00">e</text>
</g>
<!-- node0x55b7ec1c5dc0 -->
<g id="node9" class="node">
<title>node0x55b7ec1c5dc0</title>
<ellipse fill="none" stroke="black" cx="562.5" cy="-62.5" rx="12.5" ry="12.5"/>
</g>
<!-- node0x55b7ec1c5ce0&#45;&gt;node0x55b7ec1c5dc0 -->
<g id="edge8" class="edge">
<title>node0x55b7ec1c5ce0&#45;&gt;node0x55b7ec1c5dc0</title>
<path fill="none" stroke="black" d="M496.19,-62.5C507.68,-62.5 525.49,-62.5 539.61,-62.5"/>
<polygon fill="black" stroke="black" points="539.95,-66 549.95,-62.5 539.95,-59 539.95,-66"/>
<text text-anchor="middle" x="523" y="-66.3" font-family="Times,serif" font-size="14.00">n</text>
</g>
<!-- node0x55b7ec1c5ea0 -->
<g id="node10" class="node">
<title>node0x55b7ec1c5ea0</title>
<ellipse fill="none" stroke="black" cx="638.5" cy="-62.5" rx="12.5" ry="12.5"/>
</g>
<!-- node0x55b7ec1c5dc0&#45;&gt;node0x55b7ec1c5ea0 -->
<g id="edge9" class="edge">
<title>node0x55b7ec1c5dc0&#45;&gt;node0x55b7ec1c5ea0</title>
<path fill="none" stroke="black" d="M575.06,-62.5C585.86,-62.5 602.26,-62.5 615.54,-62.5"/>
<polygon fill="black" stroke="black" points="615.77,-66 625.77,-62.5 615.77,-59 615.77,-66"/>
<text text-anchor="middle" x="600.5" y="-66.3" font-family="Times,serif" font-size="14.00">t</text>
</g>
<!-- node0x55b7ec1c5f80 -->
<g id="node11" class="node">
<title>node0x55b7ec1c5f80</title>
<ellipse fill="lightgray" stroke="black" cx="716.5" cy="-62.5" rx="12.5" ry="12.5"/>
<text text-anchor="middle" x="716.5" y="-59.7" font-family="Times,serif" font-size="11.00">*</text>
</g>
<!-- node0x55b7ec1c5ea0&#45;&gt;node0x55b7ec1c5f80 -->
<g id="edge10" class="edge">
<title>node0x55b7ec1c5ea0&#45;&gt;node0x55b7ec1c5f80</title>
<path fill="none" stroke="black" d="M651.04,-62.5C662.31,-62.5 679.75,-62.5 693.65,-62.5"/>
<polygon fill="black" stroke="black" points="693.85,-66 703.85,-62.5 693.85,-59 693.85,-66"/>
<text text-anchor="middle" x="677.5" y="-66.3" font-family="Times,serif" font-size="14.00">o</text>
</g>
<!-- node0x55b7ec1c6140 -->
<g id="node13" class="node">
<title>node0x55b7ec1c6140</title>
<ellipse fill="none" stroke="black" cx="483.5" cy="-12.5" rx="12.5" ry="12.5"/>
</g>
<!-- node0x55b7ec1c6060&#45;&gt;node0x55b7ec1c6140 -->
<g id="edge12" class="edge">
<title>node0x55b7ec1c6060&#45;&gt;node0x55b7ec1c6140</title>
<path fill="none" stroke="black" d="M418.04,-12.5C429.31,-12.5 446.75,-12.5 460.65,-12.5"/>
<polygon fill="black" stroke="black" points="460.85,-16 470.85,-12.5 460.85,-9 460.85,-16"/>
<text text-anchor="middle" x="444.5" y="-16.3" font-family="Times,serif" font-size="14.00">a</text>
</g>
<!-- node0x55b7ec1c6220 -->
<g id="node14" class="node">
<title>node0x55b7ec1c6220</title>
<ellipse fill="lightgray" stroke="black" cx="562.5" cy="-12.5" rx="12.5" ry="12.5"/>
<text text-anchor="middle" x="562.5" y="-9.7" font-family="Times,serif" font-size="11.00">*</text>
</g>
<!-- node0x55b7ec1c6140&#45;&gt;node0x55b7ec1c6220 -->
<g id="edge13" class="edge">
<title>node0x55b7ec1c6140&#45;&gt;node0x55b7ec1c6220</title>
<path fill="none" stroke="black" d="M496.19,-12.5C507.68,-12.5 525.49,-12.5 539.61,-12.5"/>
<polygon fill="black" stroke="black" points="539.95,-16 549.95,-12.5 539.95,-9 539.95,-16"/>
<text text-anchor="middle" x="523" y="-16.3" font-family="Times,serif" font-size="14.00">o</text>
</g>
</g>
</svg>
